<mxfile host="app.diagrams.net" agent="Mozilla/5.0 (Windows NT 10.0; Win64; x64) AppleWebKit/537.36 (KHTML, like Gecko) Chrome/131.0.0.0 Safari/537.36" version="25.0.3">
  <diagram name="Page-1" id="KIsASXYknDO_u6vpb7rf">
    <mxGraphModel grid="1" page="1" gridSize="10" guides="1" tooltips="1" connect="1" arrows="1" fold="1" pageScale="1" pageWidth="850" pageHeight="1100" math="0" shadow="0">
      <root>
        <mxCell id="0" />
        <mxCell id="1" parent="0" />
        <mxCell id="wlKHGa--05lUgcBVfdMC-46" value="" style="group" vertex="1" connectable="0" parent="1">
          <mxGeometry x="60" y="30" width="760" height="730" as="geometry" />
        </mxCell>
        <mxCell id="wlKHGa--05lUgcBVfdMC-1" value="Amazon Cloudfront" style="sketch=0;outlineConnect=0;fontColor=#232F3E;gradientColor=none;strokeColor=#ffffff;fillColor=#232F3E;dashed=0;verticalLabelPosition=middle;verticalAlign=bottom;align=center;html=1;whiteSpace=wrap;fontSize=10;fontStyle=1;spacing=3;shape=mxgraph.aws4.productIcon;prIcon=mxgraph.aws4.cloudfront;" vertex="1" parent="wlKHGa--05lUgcBVfdMC-46">
          <mxGeometry x="190" y="10" width="80" height="110" as="geometry" />
        </mxCell>
        <mxCell id="wlKHGa--05lUgcBVfdMC-47" style="edgeStyle=orthogonalEdgeStyle;rounded=0;orthogonalLoop=1;jettySize=auto;html=1;" edge="1" parent="wlKHGa--05lUgcBVfdMC-46" source="wlKHGa--05lUgcBVfdMC-2" target="wlKHGa--05lUgcBVfdMC-1">
          <mxGeometry relative="1" as="geometry" />
        </mxCell>
        <mxCell id="wlKHGa--05lUgcBVfdMC-48" value="API Request" style="edgeLabel;html=1;align=center;verticalAlign=middle;resizable=0;points=[];" vertex="1" connectable="0" parent="wlKHGa--05lUgcBVfdMC-47">
          <mxGeometry x="-0.5284" y="-1" relative="1" as="geometry">
            <mxPoint as="offset" />
          </mxGeometry>
        </mxCell>
        <mxCell id="wlKHGa--05lUgcBVfdMC-2" value="Users" style="sketch=0;outlineConnect=0;fontColor=#232F3E;gradientColor=none;strokeColor=#232F3E;fillColor=#ffffff;dashed=0;verticalLabelPosition=bottom;verticalAlign=top;align=center;html=1;fontSize=12;fontStyle=0;aspect=fixed;shape=mxgraph.aws4.resourceIcon;resIcon=mxgraph.aws4.users;" vertex="1" parent="wlKHGa--05lUgcBVfdMC-46">
          <mxGeometry y="10" width="60" height="60" as="geometry" />
        </mxCell>
        <mxCell id="wlKHGa--05lUgcBVfdMC-5" value="" style="edgeStyle=orthogonalEdgeStyle;html=1;endArrow=block;elbow=vertical;startArrow=none;endFill=1;strokeColor=#545B64;rounded=0;entryX=0;entryY=0.5;entryDx=0;entryDy=0;entryPerimeter=0;" edge="1" parent="wlKHGa--05lUgcBVfdMC-46" source="wlKHGa--05lUgcBVfdMC-1" target="wlKHGa--05lUgcBVfdMC-3">
          <mxGeometry width="100" relative="1" as="geometry">
            <mxPoint x="124" y="145" as="sourcePoint" />
            <mxPoint x="224" y="145" as="targetPoint" />
          </mxGeometry>
        </mxCell>
        <mxCell id="wlKHGa--05lUgcBVfdMC-49" value="Request Forwarding" style="edgeLabel;html=1;align=center;verticalAlign=middle;resizable=0;points=[];" vertex="1" connectable="0" parent="wlKHGa--05lUgcBVfdMC-5">
          <mxGeometry x="-0.4305" y="-3" relative="1" as="geometry">
            <mxPoint as="offset" />
          </mxGeometry>
        </mxCell>
        <mxCell id="wlKHGa--05lUgcBVfdMC-6" value="" style="edgeStyle=orthogonalEdgeStyle;html=1;endArrow=block;elbow=vertical;startArrow=none;endFill=1;strokeColor=#545B64;rounded=0;entryX=0.5;entryY=0;entryDx=0;entryDy=0;entryPerimeter=0;" edge="1" parent="wlKHGa--05lUgcBVfdMC-46" source="wlKHGa--05lUgcBVfdMC-1" target="wlKHGa--05lUgcBVfdMC-4">
          <mxGeometry width="100" relative="1" as="geometry">
            <mxPoint x="144" y="140" as="sourcePoint" />
            <mxPoint x="244" y="140" as="targetPoint" />
          </mxGeometry>
        </mxCell>
        <mxCell id="wlKHGa--05lUgcBVfdMC-24" style="edgeStyle=orthogonalEdgeStyle;rounded=0;orthogonalLoop=1;jettySize=auto;html=1;exitX=0.5;exitY=1;exitDx=0;exitDy=0;" edge="1" parent="wlKHGa--05lUgcBVfdMC-46">
          <mxGeometry relative="1" as="geometry">
            <mxPoint x="304" y="560" as="sourcePoint" />
            <mxPoint x="304" y="560" as="targetPoint" />
          </mxGeometry>
        </mxCell>
        <mxCell id="z1jR--yxkxkSY4aTle47-1" value="" style="edgeStyle=orthogonalEdgeStyle;rounded=0;orthogonalLoop=1;jettySize=auto;html=1;" edge="1" parent="wlKHGa--05lUgcBVfdMC-46" source="wlKHGa--05lUgcBVfdMC-25" target="wlKHGa--05lUgcBVfdMC-26">
          <mxGeometry relative="1" as="geometry" />
        </mxCell>
        <mxCell id="wlKHGa--05lUgcBVfdMC-25" value="" style="outlineConnect=0;dashed=0;verticalLabelPosition=bottom;verticalAlign=top;align=center;html=1;shape=mxgraph.aws3.iam;fillColor=#759C3E;gradientColor=none;" vertex="1" parent="wlKHGa--05lUgcBVfdMC-46">
          <mxGeometry x="62" y="260" width="40" height="60" as="geometry" />
        </mxCell>
        <mxCell id="wlKHGa--05lUgcBVfdMC-72" style="edgeStyle=orthogonalEdgeStyle;rounded=0;orthogonalLoop=1;jettySize=auto;html=1;entryX=0;entryY=0.5;entryDx=0;entryDy=0;" edge="1" parent="wlKHGa--05lUgcBVfdMC-46" source="wlKHGa--05lUgcBVfdMC-26" target="wlKHGa--05lUgcBVfdMC-60">
          <mxGeometry relative="1" as="geometry">
            <mxPoint x="109.99999999999989" y="410" as="targetPoint" />
          </mxGeometry>
        </mxCell>
        <mxCell id="z1jR--yxkxkSY4aTle47-2" value="Access Control &amp;amp; Encryption for All Resources" style="edgeLabel;html=1;align=center;verticalAlign=middle;resizable=0;points=[];" vertex="1" connectable="0" parent="wlKHGa--05lUgcBVfdMC-72">
          <mxGeometry x="-0.6785" y="-1" relative="1" as="geometry">
            <mxPoint as="offset" />
          </mxGeometry>
        </mxCell>
        <mxCell id="wlKHGa--05lUgcBVfdMC-26" value="" style="outlineConnect=0;dashed=0;verticalLabelPosition=bottom;verticalAlign=top;align=center;html=1;shape=mxgraph.aws3.kms;fillColor=#759C3E;gradientColor=none;" vertex="1" parent="wlKHGa--05lUgcBVfdMC-46">
          <mxGeometry x="110" y="260" width="47" height="52" as="geometry" />
        </mxCell>
        <mxCell id="wlKHGa--05lUgcBVfdMC-41" style="edgeStyle=orthogonalEdgeStyle;rounded=0;orthogonalLoop=1;jettySize=auto;html=1;" edge="1" parent="wlKHGa--05lUgcBVfdMC-46" source="wlKHGa--05lUgcBVfdMC-40" target="wlKHGa--05lUgcBVfdMC-3">
          <mxGeometry relative="1" as="geometry" />
        </mxCell>
        <mxCell id="wlKHGa--05lUgcBVfdMC-40" value="" style="outlineConnect=0;dashed=0;verticalLabelPosition=bottom;verticalAlign=top;align=center;html=1;shape=mxgraph.aws3.cloudwatch;fillColor=#759C3E;gradientColor=none;" vertex="1" parent="wlKHGa--05lUgcBVfdMC-46">
          <mxGeometry y="140" width="62" height="70" as="geometry" />
        </mxCell>
        <mxCell id="wlKHGa--05lUgcBVfdMC-42" style="edgeStyle=orthogonalEdgeStyle;rounded=0;orthogonalLoop=1;jettySize=auto;html=1;entryX=1;entryY=0.21;entryDx=0;entryDy=0;entryPerimeter=0;" edge="1" parent="wlKHGa--05lUgcBVfdMC-46" source="wlKHGa--05lUgcBVfdMC-40" target="wlKHGa--05lUgcBVfdMC-4">
          <mxGeometry relative="1" as="geometry" />
        </mxCell>
        <mxCell id="wlKHGa--05lUgcBVfdMC-43" style="edgeStyle=orthogonalEdgeStyle;rounded=0;orthogonalLoop=1;jettySize=auto;html=1;entryX=0.25;entryY=0;entryDx=0;entryDy=0;entryPerimeter=0;" edge="1" parent="wlKHGa--05lUgcBVfdMC-46" source="wlKHGa--05lUgcBVfdMC-40" target="wlKHGa--05lUgcBVfdMC-17">
          <mxGeometry relative="1" as="geometry" />
        </mxCell>
        <mxCell id="wlKHGa--05lUgcBVfdMC-45" style="edgeStyle=orthogonalEdgeStyle;rounded=0;orthogonalLoop=1;jettySize=auto;html=1;entryX=0;entryY=0.5;entryDx=0;entryDy=0;entryPerimeter=0;" edge="1" parent="wlKHGa--05lUgcBVfdMC-46" source="wlKHGa--05lUgcBVfdMC-40" target="wlKHGa--05lUgcBVfdMC-19">
          <mxGeometry relative="1" as="geometry" />
        </mxCell>
        <mxCell id="wlKHGa--05lUgcBVfdMC-55" value="" style="group" vertex="1" connectable="0" parent="wlKHGa--05lUgcBVfdMC-46">
          <mxGeometry x="280" y="300" width="440" height="330" as="geometry" />
        </mxCell>
        <mxCell id="wlKHGa--05lUgcBVfdMC-9" style="edgeStyle=orthogonalEdgeStyle;rounded=0;orthogonalLoop=1;jettySize=auto;html=1;" edge="1" parent="wlKHGa--05lUgcBVfdMC-55" source="wlKHGa--05lUgcBVfdMC-3" target="wlKHGa--05lUgcBVfdMC-7">
          <mxGeometry relative="1" as="geometry" />
        </mxCell>
        <mxCell id="wlKHGa--05lUgcBVfdMC-3" value="" style="outlineConnect=0;dashed=0;verticalLabelPosition=bottom;verticalAlign=top;align=center;html=1;shape=mxgraph.aws3.ec2;fillColor=#F58534;gradientColor=none;" vertex="1" parent="wlKHGa--05lUgcBVfdMC-55">
          <mxGeometry x="160" width="76.5" height="93" as="geometry" />
        </mxCell>
        <mxCell id="wlKHGa--05lUgcBVfdMC-16" style="edgeStyle=orthogonalEdgeStyle;rounded=0;orthogonalLoop=1;jettySize=auto;html=1;" edge="1" parent="wlKHGa--05lUgcBVfdMC-55" source="wlKHGa--05lUgcBVfdMC-4" target="wlKHGa--05lUgcBVfdMC-7">
          <mxGeometry relative="1" as="geometry" />
        </mxCell>
        <mxCell id="wlKHGa--05lUgcBVfdMC-4" value="" style="outlineConnect=0;dashed=0;verticalLabelPosition=bottom;verticalAlign=top;align=center;html=1;shape=mxgraph.aws3.lambda;fillColor=#F58534;gradientColor=none;" vertex="1" parent="wlKHGa--05lUgcBVfdMC-55">
          <mxGeometry x="270" y="60" width="76.5" height="93" as="geometry" />
        </mxCell>
        <mxCell id="wlKHGa--05lUgcBVfdMC-7" value="Amazon S3" style="sketch=0;outlineConnect=0;fontColor=#232F3E;gradientColor=none;strokeColor=#ffffff;fillColor=#232F3E;dashed=0;verticalLabelPosition=middle;verticalAlign=bottom;align=center;html=1;whiteSpace=wrap;fontSize=10;fontStyle=1;spacing=3;shape=mxgraph.aws4.productIcon;prIcon=mxgraph.aws4.s3;" vertex="1" parent="wlKHGa--05lUgcBVfdMC-55">
          <mxGeometry x="160" y="190" width="80" height="100" as="geometry" />
        </mxCell>
        <mxCell id="wlKHGa--05lUgcBVfdMC-17" value="" style="sketch=0;points=[[0,0,0],[0.25,0,0],[0.5,0,0],[0.75,0,0],[1,0,0],[0,1,0],[0.25,1,0],[0.5,1,0],[0.75,1,0],[1,1,0],[0,0.25,0],[0,0.5,0],[0,0.75,0],[1,0.25,0],[1,0.5,0],[1,0.75,0]];outlineConnect=0;fontColor=#232F3E;fillColor=#7AA116;strokeColor=#ffffff;dashed=0;verticalLabelPosition=bottom;verticalAlign=top;align=center;html=1;fontSize=12;fontStyle=0;aspect=fixed;shape=mxgraph.aws4.resourceIcon;resIcon=mxgraph.aws4.glacier;" vertex="1" parent="wlKHGa--05lUgcBVfdMC-55">
          <mxGeometry y="180" width="78" height="78" as="geometry" />
        </mxCell>
        <mxCell id="wlKHGa--05lUgcBVfdMC-19" value="" style="outlineConnect=0;dashed=0;verticalLabelPosition=bottom;verticalAlign=top;align=center;html=1;shape=mxgraph.aws3.rds;fillColor=#2E73B8;gradientColor=none;" vertex="1" parent="wlKHGa--05lUgcBVfdMC-55">
          <mxGeometry x="285" y="190" width="72" height="81" as="geometry" />
        </mxCell>
        <mxCell id="wlKHGa--05lUgcBVfdMC-20" style="edgeStyle=orthogonalEdgeStyle;rounded=0;orthogonalLoop=1;jettySize=auto;html=1;entryX=0;entryY=0.22;entryDx=0;entryDy=0;entryPerimeter=0;" edge="1" parent="wlKHGa--05lUgcBVfdMC-55" source="wlKHGa--05lUgcBVfdMC-3" target="wlKHGa--05lUgcBVfdMC-19">
          <mxGeometry relative="1" as="geometry" />
        </mxCell>
        <mxCell id="wlKHGa--05lUgcBVfdMC-51" value="Metadata Query" style="edgeLabel;html=1;align=center;verticalAlign=middle;resizable=0;points=[];" vertex="1" connectable="0" parent="wlKHGa--05lUgcBVfdMC-20">
          <mxGeometry x="0.2871" y="-3" relative="1" as="geometry">
            <mxPoint y="13" as="offset" />
          </mxGeometry>
        </mxCell>
        <mxCell id="wlKHGa--05lUgcBVfdMC-21" style="edgeStyle=orthogonalEdgeStyle;rounded=0;orthogonalLoop=1;jettySize=auto;html=1;entryX=1;entryY=0.5;entryDx=0;entryDy=0;entryPerimeter=0;" edge="1" parent="wlKHGa--05lUgcBVfdMC-55" source="wlKHGa--05lUgcBVfdMC-4" target="wlKHGa--05lUgcBVfdMC-19">
          <mxGeometry relative="1" as="geometry" />
        </mxCell>
        <mxCell id="wlKHGa--05lUgcBVfdMC-18" style="edgeStyle=orthogonalEdgeStyle;rounded=0;orthogonalLoop=1;jettySize=auto;html=1;entryX=0;entryY=0.5;entryDx=0;entryDy=0;entryPerimeter=0;" edge="1" parent="wlKHGa--05lUgcBVfdMC-55" source="wlKHGa--05lUgcBVfdMC-7" target="wlKHGa--05lUgcBVfdMC-17">
          <mxGeometry relative="1" as="geometry" />
        </mxCell>
        <mxCell id="wlKHGa--05lUgcBVfdMC-52" value="Archiving Data" style="edgeLabel;html=1;align=center;verticalAlign=middle;resizable=0;points=[];" vertex="1" connectable="0" parent="wlKHGa--05lUgcBVfdMC-18">
          <mxGeometry x="-0.279" y="-2" relative="1" as="geometry">
            <mxPoint as="offset" />
          </mxGeometry>
        </mxCell>
        <mxCell id="wlKHGa--05lUgcBVfdMC-57" value="Backend Services" style="fillColor=none;strokeColor=#86391D;dashed=1;verticalAlign=top;fontStyle=0;fontColor=#5A6C86;whiteSpace=wrap;html=1;" vertex="1" parent="wlKHGa--05lUgcBVfdMC-55">
          <mxGeometry x="130" y="-18.5" width="290" height="168.5" as="geometry" />
        </mxCell>
        <mxCell id="wlKHGa--05lUgcBVfdMC-58" value="Storage Services" style="fillColor=none;strokeColor=#5A6C86;dashed=1;verticalAlign=top;fontStyle=0;fontColor=#5A6C86;whiteSpace=wrap;html=1;" vertex="1" parent="wlKHGa--05lUgcBVfdMC-55">
          <mxGeometry x="-10" y="154" width="260" height="176" as="geometry" />
        </mxCell>
        <mxCell id="wlKHGa--05lUgcBVfdMC-59" value="Database" style="fillColor=none;strokeColor=#5A6C86;dashed=1;verticalAlign=top;fontStyle=0;fontColor=#5A6C86;whiteSpace=wrap;html=1;" vertex="1" parent="wlKHGa--05lUgcBVfdMC-55">
          <mxGeometry x="270" y="170" width="130" height="140" as="geometry" />
        </mxCell>
        <mxCell id="wlKHGa--05lUgcBVfdMC-60" value="VPC:&amp;nbsp; Networking and Security Layer" style="points=[[0,0],[0.25,0],[0.5,0],[0.75,0],[1,0],[1,0.25],[1,0.5],[1,0.75],[1,1],[0.75,1],[0.5,1],[0.25,1],[0,1],[0,0.75],[0,0.5],[0,0.25]];outlineConnect=0;gradientColor=none;html=1;whiteSpace=wrap;fontSize=12;fontStyle=0;container=1;pointerEvents=0;collapsible=0;recursiveResize=0;shape=mxgraph.aws4.group;grIcon=mxgraph.aws4.group_vpc2;strokeColor=#8C4FFF;fillColor=none;verticalAlign=top;align=left;spacingLeft=30;fontColor=#AAB7B8;dashed=0;" vertex="1" parent="wlKHGa--05lUgcBVfdMC-46">
          <mxGeometry x="60" y="230" width="650" height="500" as="geometry" />
        </mxCell>
        <mxCell id="wlKHGa--05lUgcBVfdMC-62" value="Content Delivery and Frontend" style="fillColor=none;strokeColor=#5A6C86;dashed=1;verticalAlign=top;fontStyle=0;fontColor=#5A6C86;whiteSpace=wrap;html=1;" vertex="1" parent="1">
          <mxGeometry x="220" y="10" width="180" height="150" as="geometry" />
        </mxCell>
        <mxCell id="wlKHGa--05lUgcBVfdMC-63" value="Monitoring" style="fillColor=none;strokeColor=#5A6C86;dashed=1;verticalAlign=top;fontStyle=0;fontColor=#5A6C86;whiteSpace=wrap;html=1;" vertex="1" parent="1">
          <mxGeometry x="30" y="149" width="180" height="90" as="geometry" />
        </mxCell>
      </root>
    </mxGraphModel>
  </diagram>
</mxfile>
